# xmcd
#
# Track frame offsets: 
#        150
#        23820
#        60523
#        91373
#        108288
#        136088
#        163180
#        192345
#        215808
#
# Disc length: 3217 seconds
#
# Revision: 6
# Processed by: cddbd v1.5.2PL0 Copyright (c) Steve Scherf et al.
# Submitted via: ExactAudioCopyFreeDBPlugin 1.0
#
DISCID=790c8f09
DTITLE=Monty Alexander - Triple Treat II
DYEAR=1987
DGENRE=Jazz
TTITLE0=Lined With A Groove
TTITLE1=Straighten Up And Fly Right
TTITLE2=It Might As Well Be Spring
TTITLE3=Seven Come Eleven
TTITLE4=Fred
TTITLE5=Smile
TTITLE6=I'lll Remember April
TTITLE7=Polkadots And Moonbeams
TTITLE8=Lester Leaps In
EXTD=Monty Alexander with Ray Brown and Herb Ellis\nSpecial Guest - Jo
EXTD=hn Frigo\n
EXTT0=
EXTT1=
EXTT2=
EXTT3=
EXTT4=
EXTT5=
EXTT6=
EXTT7=
EXTT8=
PLAYORDER=
